<?xml version="1.0" encoding="UTF-8"?>
<svg xmlns="http://www.w3.org/2000/svg" viewBox="0 0 960 476" width="960" height="476"><rect width="960" height="100%" fill="#1a1a19"/><text x="32" y="38" font-family="Seravek, 'Gill Sans', 'Helvetica Neue', Arial, sans-serif" font-size="19" font-weight="700" fill="#ffffff">Multi-turn reference edits: tools fragility is a small-model problem</text><text x="32" y="60" font-family="Seravek, 'Gill Sans', 'Helvetica Neue', Arial, sans-serif" font-size="12.5" fill="#c3c2b7">Success on &#8220;insert a node, then edit it by the id from your own output&#8221; &#8212; parity prompts, n = 40 per cell, Wilson 95% CI</text><rect x="32" y="80" width="14" height="4" rx="2" fill="#3987e5"/><text x="52" y="85" font-family="Menlo, 'SF Mono', Consolas, monospace" font-size="12" font-weight="700" fill="#ffffff">A</text><text x="64" y="85" font-family="Seravek, 'Gill Sans', 'Helvetica Neue', Arial, sans-serif" font-size="12" fill="#c3c2b7">HTML + rewrite</text><rect x="183.60000000000002" y="80" width="14" height="4" rx="2" fill="#199e70"/><text x="203.60000000000002" y="85" font-family="Menlo, 'SF Mono', Consolas, monospace" font-size="12" font-weight="700" fill="#ffffff">B</text><text x="215.60000000000002" y="85" font-family="Seravek, 'Gill Sans', 'Helvetica Neue', Arial, sans-serif" font-size="12" fill="#c3c2b7">JSON + rewrite</text><rect x="335.20000000000005" y="80" width="14" height="4" rx="2" fill="#c98500"/><text x="355.20000000000005" y="85" font-family="Menlo, 'SF Mono', Consolas, monospace" font-size="12" font-weight="700" fill="#ffffff">C</text><text x="367.20000000000005" y="85" font-family="Seravek, 'Gill Sans', 'Helvetica Neue', Arial, sans-serif" font-size="12" fill="#c3c2b7">JSON + tools</text><rect x="474.00000000000006" y="80" width="14" height="4" rx="2" fill="#008300"/><text x="494.00000000000006" y="85" font-family="Menlo, 'SF Mono', Consolas, monospace" font-size="12" font-weight="700" fill="#ffffff">D</text><text x="506.00000000000006" y="85" font-family="Seravek, 'Gill Sans', 'Helvetica Neue', Arial, sans-serif" font-size="12" fill="#c3c2b7">HTML + tools</text><rect x="612.8000000000001" y="80" width="14" height="4" rx="2" fill="#9085e9"/><text x="632.8000000000001" y="85" font-family="Menlo, 'SF Mono', Consolas, monospace" font-size="12" font-weight="700" fill="#ffffff">E</text><text x="644.8000000000001" y="85" font-family="Seravek, 'Gill Sans', 'Helvetica Neue', Arial, sans-serif" font-size="12" fill="#c3c2b7">JSON Patch</text><line x1="190" x2="190" y1="112" y2="384" stroke="#2e2e2c" stroke-width="1"/><text x="190" y="406" text-anchor="middle" font-family="Menlo, 'SF Mono', Consolas, monospace" font-size="12" fill="#c3c2b7">0%</text><line x1="372.5" x2="372.5" y1="112" y2="384" stroke="#2e2e2c" stroke-width="1"/><text x="372.5" y="406" text-anchor="middle" font-family="Menlo, 'SF Mono', Consolas, monospace" font-size="12" fill="#c3c2b7">25%</text><line x1="555" x2="555" y1="112" y2="384" stroke="#2e2e2c" stroke-width="1"/><text x="555" y="406" text-anchor="middle" font-family="Menlo, 'SF Mono', Consolas, monospace" font-size="12" fill="#c3c2b7">50%</text><line x1="737.5" x2="737.5" y1="112" y2="384" stroke="#2e2e2c" stroke-width="1"/><text x="737.5" y="406" text-anchor="middle" font-family="Menlo, 'SF Mono', Consolas, monospace" font-size="12" fill="#c3c2b7">75%</text><line x1="920" x2="920" y1="112" y2="384" stroke="#2e2e2c" stroke-width="1"/><text x="920" y="406" text-anchor="middle" font-family="Menlo, 'SF Mono', Consolas, monospace" font-size="12" fill="#c3c2b7">100%</text><text x="555" y="428" text-anchor="middle" font-family="Seravek, 'Gill Sans', 'Helvetica Neue', Arial, sans-serif" font-size="11.5" fill="#8b8a83">reference-task success</text><line x1="190" x2="920" y1="146" y2="146" stroke="#3a3a37" stroke-width="1"/><text x="176" y="150" text-anchor="end" font-family="Menlo, 'SF Mono', Consolas, monospace" font-size="13" fill="#ffffff">gpt-5.4</text><line x1="825.83" x2="917.08" y1="146" y2="146" stroke="#3987e5" stroke-width="1.5" opacity="0.4"/><line x1="825.83" x2="917.08" y1="146" y2="146" stroke="#199e70" stroke-width="1.5" opacity="0.4"/><line x1="825.83" x2="917.08" y1="146" y2="146" stroke="#c98500" stroke-width="1.5" opacity="0.4"/><line x1="799.55" x2="909.78" y1="146" y2="146" stroke="#008300" stroke-width="1.5" opacity="0.4"/><line x1="646.25" x2="830.21" y1="146" y2="146" stroke="#9085e9" stroke-width="1.5" opacity="0.4"/><circle cx="901.75" cy="146" r="6" fill="#3987e5" stroke="#1a1a19" stroke-width="2"/><circle cx="901.75" cy="146" r="6" fill="#199e70" stroke="#1a1a19" stroke-width="2"/><circle cx="901.75" cy="146" r="6" fill="#c98500" stroke="#1a1a19" stroke-width="2"/><circle cx="883.5" cy="146" r="6" fill="#008300" stroke="#1a1a19" stroke-width="2"/><circle cx="755.75" cy="146" r="6" fill="#9085e9" stroke="#1a1a19" stroke-width="2"/><line x1="190" x2="920" y1="214" y2="214" stroke="#3a3a37" stroke-width="1"/><text x="176" y="218" text-anchor="end" font-family="Menlo, 'SF Mono', Consolas, monospace" font-size="13" fill="#ffffff">sonnet-4.5</text><line x1="774.7299999999999" x2="901.0200000000001" y1="214" y2="214" stroke="#3987e5" stroke-width="1.5" opacity="0.4"/><line x1="751.37" x2="890.8" y1="214" y2="214" stroke="#199e70" stroke-width="1.5" opacity="0.4"/><line x1="799.55" x2="909.78" y1="214" y2="214" stroke="#c98500" stroke-width="1.5" opacity="0.4"/><line x1="825.83" x2="917.08" y1="214" y2="214" stroke="#008300" stroke-width="1.5" opacity="0.4"/><line x1="626.54" x2="816.34" y1="214" y2="214" stroke="#9085e9" stroke-width="1.5" opacity="0.4"/><circle cx="865.25" cy="214" r="6" fill="#3987e5" stroke="#1a1a19" stroke-width="2"/><circle cx="847" cy="214" r="6" fill="#199e70" stroke="#1a1a19" stroke-width="2"/><circle cx="883.5" cy="214" r="6" fill="#c98500" stroke="#1a1a19" stroke-width="2"/><circle cx="901.75" cy="214" r="6" fill="#008300" stroke="#1a1a19" stroke-width="2"/><circle cx="737.5" cy="214" r="6" fill="#9085e9" stroke="#1a1a19" stroke-width="2"/><line x1="190" x2="920" y1="282" y2="282" stroke="#3a3a37" stroke-width="1"/><text x="176" y="286" text-anchor="end" font-family="Menlo, 'SF Mono', Consolas, monospace" font-size="13" fill="#ffffff">haiku-4.5</text><line x1="707.57" x2="868.1700000000001" y1="282" y2="282" stroke="#3987e5" stroke-width="1.5" opacity="0.4"/><line x1="729.47" x2="879.8499999999999" y1="282" y2="282" stroke="#199e70" stroke-width="1.5" opacity="0.4"/><line x1="293.65999999999997" x2="483.46000000000004" y1="282" y2="282" stroke="#c98500" stroke-width="1.5" opacity="0.4"/><line x1="336.73" x2="540.4" y1="282" y2="282" stroke="#008300" stroke-width="1.5" opacity="0.4"/><line x1="588.58" x2="787.87" y1="282" y2="282" stroke="#9085e9" stroke-width="1.5" opacity="0.4"/><circle cx="810.5" cy="282" r="6" fill="#3987e5" stroke="#1a1a19" stroke-width="2"/><circle cx="828.75" cy="282" r="6" fill="#199e70" stroke="#1a1a19" stroke-width="2"/><circle cx="372.5" cy="282" r="6" fill="#c98500" stroke="#1a1a19" stroke-width="2"/><circle cx="427.25" cy="282" r="6" fill="#008300" stroke="#1a1a19" stroke-width="2"/><circle cx="701" cy="282" r="6" fill="#9085e9" stroke="#1a1a19" stroke-width="2"/><line x1="190" x2="920" y1="350" y2="350" stroke="#3a3a37" stroke-width="1"/><text x="176" y="354" text-anchor="end" font-family="Menlo, 'SF Mono', Consolas, monospace" font-size="13" fill="#ffffff">gemini-3.5-flash</text><line x1="646.25" x2="830.21" y1="350" y2="350" stroke="#3987e5" stroke-width="1.5" opacity="0.4"/><line x1="707.57" x2="868.1700000000001" y1="350" y2="350" stroke="#199e70" stroke-width="1.5" opacity="0.4"/><line x1="192.92" x2="284.17" y1="350" y2="350" stroke="#c98500" stroke-width="1.5" opacity="0.4"/><line x1="200.22" x2="310.45" y1="350" y2="350" stroke="#008300" stroke-width="1.5" opacity="0.4"/><line x1="626.54" x2="816.34" y1="350" y2="350" stroke="#9085e9" stroke-width="1.5" opacity="0.4"/><circle cx="755.75" cy="350" r="6" fill="#3987e5" stroke="#1a1a19" stroke-width="2"/><circle cx="810.5" cy="350" r="6" fill="#199e70" stroke="#1a1a19" stroke-width="2"/><circle cx="208.25" cy="350" r="6" fill="#c98500" stroke="#1a1a19" stroke-width="2"/><circle cx="226.5" cy="350" r="6" fill="#008300" stroke="#1a1a19" stroke-width="2"/><circle cx="737.5" cy="350" r="6" fill="#9085e9" stroke="#1a1a19" stroke-width="2"/><text x="210.25" y="336" font-family="Menlo, 'SF Mono', Consolas, monospace" font-size="11.5" font-weight="700" fill="#c98500">C &#183; 2.5%</text><text x="928" y="462" text-anchor="end" font-family="Seravek, 'Gill Sans', 'Helvetica Neue', Arial, sans-serif" font-size="10.5" fill="#8b8a83">barkup-bench &#183; 8,000 runs &#183; zero stale-id failures &#8212; the tools arms fail by not executing the follow-up edit</text></svg>
