<?xml version="1.0" encoding="UTF-8"?>
<svg xmlns="http://www.w3.org/2000/svg" viewBox="0 0 960 476" width="960" height="476"><rect width="960" height="100%" fill="#fcfcfb"/><text x="32" y="38" font-family="Seravek, 'Gill Sans', 'Helvetica Neue', Arial, sans-serif" font-size="19" font-weight="700" fill="#0b0b0b">Corrected: multi-turn reference edits are near-parity under correct tool history</text><text x="32" y="60" font-family="Seravek, 'Gill Sans', 'Helvetica Neue', Arial, sans-serif" font-size="12.5" fill="#52514e">Success on &#8220;insert a node, then edit it by the id from your own output&#8221; &#8212; protocol v2, parity prompts, n = 40 per cell, Wilson 95% CI</text><rect x="32" y="80" width="14" height="4" rx="2" fill="#2a78d6"/><text x="52" y="85" font-family="Menlo, 'SF Mono', Consolas, monospace" font-size="12" font-weight="700" fill="#0b0b0b">A</text><text x="64" y="85" font-family="Seravek, 'Gill Sans', 'Helvetica Neue', Arial, sans-serif" font-size="12" fill="#52514e">HTML + rewrite</text><rect x="183.60000000000002" y="80" width="14" height="4" rx="2" fill="#1baf7a"/><text x="203.60000000000002" y="85" font-family="Menlo, 'SF Mono', Consolas, monospace" font-size="12" font-weight="700" fill="#0b0b0b">B</text><text x="215.60000000000002" y="85" font-family="Seravek, 'Gill Sans', 'Helvetica Neue', Arial, sans-serif" font-size="12" fill="#52514e">JSON + rewrite</text><rect x="335.20000000000005" y="80" width="14" height="4" rx="2" fill="#eda100"/><text x="355.20000000000005" y="85" font-family="Menlo, 'SF Mono', Consolas, monospace" font-size="12" font-weight="700" fill="#0b0b0b">C</text><text x="367.20000000000005" y="85" font-family="Seravek, 'Gill Sans', 'Helvetica Neue', Arial, sans-serif" font-size="12" fill="#52514e">JSON + tools</text><rect x="474.00000000000006" y="80" width="14" height="4" rx="2" fill="#008300"/><text x="494.00000000000006" y="85" font-family="Menlo, 'SF Mono', Consolas, monospace" font-size="12" font-weight="700" fill="#0b0b0b">D</text><text x="506.00000000000006" y="85" font-family="Seravek, 'Gill Sans', 'Helvetica Neue', Arial, sans-serif" font-size="12" fill="#52514e">HTML + tools</text><rect x="612.8000000000001" y="80" width="14" height="4" rx="2" fill="#4a3aa7"/><text x="632.8000000000001" y="85" font-family="Menlo, 'SF Mono', Consolas, monospace" font-size="12" font-weight="700" fill="#0b0b0b">E</text><text x="644.8000000000001" y="85" font-family="Seravek, 'Gill Sans', 'Helvetica Neue', Arial, sans-serif" font-size="12" fill="#52514e">JSON Patch</text><rect x="738.8000000000001" y="80" width="14" height="4" rx="2" fill="#e34948"/><text x="758.8000000000001" y="85" font-family="Menlo, 'SF Mono', Consolas, monospace" font-size="12" font-weight="700" fill="#0b0b0b">F</text><text x="770.8000000000001" y="85" font-family="Seravek, 'Gill Sans', 'Helvetica Neue', Arial, sans-serif" font-size="12" fill="#52514e">anchored patch</text><line x1="190" x2="190" y1="112" y2="384" stroke="#ebebe8" stroke-width="1"/><text x="190" y="406" text-anchor="middle" font-family="Menlo, 'SF Mono', Consolas, monospace" font-size="12" fill="#52514e">0%</text><line x1="372.5" x2="372.5" y1="112" y2="384" stroke="#ebebe8" stroke-width="1"/><text x="372.5" y="406" text-anchor="middle" font-family="Menlo, 'SF Mono', Consolas, monospace" font-size="12" fill="#52514e">25%</text><line x1="555" x2="555" y1="112" y2="384" stroke="#ebebe8" stroke-width="1"/><text x="555" y="406" text-anchor="middle" font-family="Menlo, 'SF Mono', Consolas, monospace" font-size="12" fill="#52514e">50%</text><line x1="737.5" x2="737.5" y1="112" y2="384" stroke="#ebebe8" stroke-width="1"/><text x="737.5" y="406" text-anchor="middle" font-family="Menlo, 'SF Mono', Consolas, monospace" font-size="12" fill="#52514e">75%</text><line x1="920" x2="920" y1="112" y2="384" stroke="#ebebe8" stroke-width="1"/><text x="920" y="406" text-anchor="middle" font-family="Menlo, 'SF Mono', Consolas, monospace" font-size="12" fill="#52514e">100%</text><text x="555" y="428" text-anchor="middle" font-family="Seravek, 'Gill Sans', 'Helvetica Neue', Arial, sans-serif" font-size="11.5" fill="#8b8a83">reference-task success</text><line x1="190" x2="920" y1="146" y2="146" stroke="#e0e0dc" stroke-width="1"/><text x="176" y="150" text-anchor="end" font-family="Menlo, 'SF Mono', Consolas, monospace" font-size="13" fill="#0b0b0b">gpt-5.4</text><line x1="825.83" x2="917.08" y1="146" y2="146" stroke="#2a78d6" stroke-width="1.5" opacity="0.4"/><line x1="825.83" x2="917.08" y1="146" y2="146" stroke="#1baf7a" stroke-width="1.5" opacity="0.4"/><line x1="855.76" x2="920" y1="146" y2="146" stroke="#eda100" stroke-width="1.5" opacity="0.4"/><line x1="855.76" x2="920" y1="146" y2="146" stroke="#008300" stroke-width="1.5" opacity="0.4"/><line x1="646.25" x2="830.21" y1="146" y2="146" stroke="#4a3aa7" stroke-width="1.5" opacity="0.4"/><line x1="774.7299999999999" x2="901.0200000000001" y1="146" y2="146" stroke="#e34948" stroke-width="1.5" opacity="0.4"/><circle cx="901.75" cy="146" r="6" fill="#2a78d6" stroke="#fcfcfb" stroke-width="2"/><circle cx="901.75" cy="146" r="6" fill="#1baf7a" stroke="#fcfcfb" stroke-width="2"/><circle cx="920" cy="146" r="6" fill="#eda100" stroke="#fcfcfb" stroke-width="2"/><circle cx="920" cy="146" r="6" fill="#008300" stroke="#fcfcfb" stroke-width="2"/><circle cx="755.75" cy="146" r="6" fill="#4a3aa7" stroke="#fcfcfb" stroke-width="2"/><circle cx="865.25" cy="146" r="6" fill="#e34948" stroke="#fcfcfb" stroke-width="2"/><line x1="190" x2="920" y1="214" y2="214" stroke="#e0e0dc" stroke-width="1"/><text x="176" y="218" text-anchor="end" font-family="Menlo, 'SF Mono', Consolas, monospace" font-size="13" fill="#0b0b0b">sonnet-4.5</text><line x1="774.7299999999999" x2="901.0200000000001" y1="214" y2="214" stroke="#2a78d6" stroke-width="1.5" opacity="0.4"/><line x1="751.37" x2="890.8" y1="214" y2="214" stroke="#1baf7a" stroke-width="1.5" opacity="0.4"/><line x1="855.76" x2="920" y1="214" y2="214" stroke="#eda100" stroke-width="1.5" opacity="0.4"/><line x1="855.76" x2="920" y1="214" y2="214" stroke="#008300" stroke-width="1.5" opacity="0.4"/><line x1="626.54" x2="816.34" y1="214" y2="214" stroke="#4a3aa7" stroke-width="1.5" opacity="0.4"/><line x1="855.76" x2="920" y1="214" y2="214" stroke="#e34948" stroke-width="1.5" opacity="0.4"/><circle cx="865.25" cy="214" r="6" fill="#2a78d6" stroke="#fcfcfb" stroke-width="2"/><circle cx="847" cy="214" r="6" fill="#1baf7a" stroke="#fcfcfb" stroke-width="2"/><circle cx="920" cy="214" r="6" fill="#eda100" stroke="#fcfcfb" stroke-width="2"/><circle cx="920" cy="214" r="6" fill="#008300" stroke="#fcfcfb" stroke-width="2"/><circle cx="737.5" cy="214" r="6" fill="#4a3aa7" stroke="#fcfcfb" stroke-width="2"/><circle cx="920" cy="214" r="6" fill="#e34948" stroke="#fcfcfb" stroke-width="2"/><line x1="190" x2="920" y1="282" y2="282" stroke="#e0e0dc" stroke-width="1"/><text x="176" y="286" text-anchor="end" font-family="Menlo, 'SF Mono', Consolas, monospace" font-size="13" fill="#0b0b0b">haiku-4.5</text><line x1="707.57" x2="868.1700000000001" y1="282" y2="282" stroke="#2a78d6" stroke-width="1.5" opacity="0.4"/><line x1="729.47" x2="879.8499999999999" y1="282" y2="282" stroke="#1baf7a" stroke-width="1.5" opacity="0.4"/><line x1="825.83" x2="917.08" y1="282" y2="282" stroke="#eda100" stroke-width="1.5" opacity="0.4"/><line x1="855.76" x2="920" y1="282" y2="282" stroke="#008300" stroke-width="1.5" opacity="0.4"/><line x1="588.58" x2="787.87" y1="282" y2="282" stroke="#4a3aa7" stroke-width="1.5" opacity="0.4"/><line x1="729.47" x2="879.8499999999999" y1="282" y2="282" stroke="#e34948" stroke-width="1.5" opacity="0.4"/><circle cx="810.5" cy="282" r="6" fill="#2a78d6" stroke="#fcfcfb" stroke-width="2"/><circle cx="828.75" cy="282" r="6" fill="#1baf7a" stroke="#fcfcfb" stroke-width="2"/><circle cx="901.75" cy="282" r="6" fill="#eda100" stroke="#fcfcfb" stroke-width="2"/><circle cx="920" cy="282" r="6" fill="#008300" stroke="#fcfcfb" stroke-width="2"/><circle cx="701" cy="282" r="6" fill="#4a3aa7" stroke="#fcfcfb" stroke-width="2"/><circle cx="828.75" cy="282" r="6" fill="#e34948" stroke="#fcfcfb" stroke-width="2"/><line x1="190" x2="920" y1="350" y2="350" stroke="#e0e0dc" stroke-width="1"/><text x="176" y="354" text-anchor="end" font-family="Menlo, 'SF Mono', Consolas, monospace" font-size="13" fill="#0b0b0b">gemini-3.5-flash</text><line x1="646.25" x2="830.21" y1="350" y2="350" stroke="#2a78d6" stroke-width="1.5" opacity="0.4"/><line x1="707.57" x2="868.1700000000001" y1="350" y2="350" stroke="#1baf7a" stroke-width="1.5" opacity="0.4"/><line x1="569.6" x2="773.27" y1="350" y2="350" stroke="#eda100" stroke-width="1.5" opacity="0.4"/><line x1="626.54" x2="816.34" y1="350" y2="350" stroke="#008300" stroke-width="1.5" opacity="0.4"/><line x1="626.54" x2="816.34" y1="350" y2="350" stroke="#4a3aa7" stroke-width="1.5" opacity="0.4"/><line x1="686.4000000000001" x2="856.4899999999999" y1="350" y2="350" stroke="#e34948" stroke-width="1.5" opacity="0.4"/><circle cx="755.75" cy="350" r="6" fill="#2a78d6" stroke="#fcfcfb" stroke-width="2"/><circle cx="810.5" cy="350" r="6" fill="#1baf7a" stroke="#fcfcfb" stroke-width="2"/><circle cx="682.75" cy="350" r="6" fill="#eda100" stroke="#fcfcfb" stroke-width="2"/><circle cx="737.5" cy="350" r="6" fill="#008300" stroke="#fcfcfb" stroke-width="2"/><circle cx="737.5" cy="350" r="6" fill="#4a3aa7" stroke="#fcfcfb" stroke-width="2"/><circle cx="792.25" cy="350" r="6" fill="#e34948" stroke="#fcfcfb" stroke-width="2"/><text x="928" y="462" text-anchor="end" font-family="Seravek, 'Gill Sans', 'Helvetica Neue', Arial, sans-serif" font-size="10.5" fill="#8b8a83">barkup-bench &#183; zero stale-id failures in every arm &#183; gemini-3.5-flash residual failures are phase-1 tools accuracy, not follow-up dropout</text></svg>
