<?xml version="1.0" encoding="UTF-8"?>
<svg xmlns="http://www.w3.org/2000/svg" viewBox="0 0 960 584" width="960" height="584"><rect width="960" height="100%" fill="#fcfcfb"/><text x="32" y="38" font-family="Seravek, 'Gill Sans', 'Helvetica Neue', Arial, sans-serif" font-size="19" font-weight="700" fill="#0b0b0b">The crossover, found: above ~300 nodes, only anchored patches hold</text><text x="32" y="60" font-family="Seravek, 'Gill Sans', 'Helvetica Neue', Arial, sans-serif" font-size="12.5" fill="#52514e">Task success at 300&#8211;1000 nodes &#8212; solid: claude-sonnet-4.5, dashed: gemini-3.5-flash; n = 15 per point &#183; barkup-bench Study H</text><rect x="32" y="80" width="14" height="4" rx="2" fill="#2a78d6"/><text x="52" y="85" font-family="Menlo, 'SF Mono', Consolas, monospace" font-size="12" font-weight="700" fill="#0b0b0b">A</text><text x="64" y="85" font-family="Seravek, 'Gill Sans', 'Helvetica Neue', Arial, sans-serif" font-size="12" fill="#52514e">HTML + rewrite</text><rect x="183.60000000000002" y="80" width="14" height="4" rx="2" fill="#4a3aa7"/><text x="203.60000000000002" y="85" font-family="Menlo, 'SF Mono', Consolas, monospace" font-size="12" font-weight="700" fill="#0b0b0b">E</text><text x="215.60000000000002" y="85" font-family="Seravek, 'Gill Sans', 'Helvetica Neue', Arial, sans-serif" font-size="12" fill="#52514e">JSON Patch</text><rect x="309.6" y="80" width="14" height="4" rx="2" fill="#e34948"/><text x="329.6" y="85" font-family="Menlo, 'SF Mono', Consolas, monospace" font-size="12" font-weight="700" fill="#0b0b0b">F</text><text x="341.6" y="85" font-family="Seravek, 'Gill Sans', 'Helvetica Neue', Arial, sans-serif" font-size="12" fill="#52514e">anchored patch</text><line x1="72" x2="760" y1="496" y2="496" stroke="#ebebe8" stroke-width="1"/><text x="62" y="500" text-anchor="end" font-family="Menlo, 'SF Mono', Consolas, monospace" font-size="12" fill="#52514e">0%</text><line x1="72" x2="760" y1="401" y2="401" stroke="#ebebe8" stroke-width="1"/><text x="62" y="405" text-anchor="end" font-family="Menlo, 'SF Mono', Consolas, monospace" font-size="12" fill="#52514e">25%</text><line x1="72" x2="760" y1="306" y2="306" stroke="#ebebe8" stroke-width="1"/><text x="62" y="310" text-anchor="end" font-family="Menlo, 'SF Mono', Consolas, monospace" font-size="12" fill="#52514e">50%</text><line x1="72" x2="760" y1="211" y2="211" stroke="#ebebe8" stroke-width="1"/><text x="62" y="215" text-anchor="end" font-family="Menlo, 'SF Mono', Consolas, monospace" font-size="12" fill="#52514e">75%</text><line x1="72" x2="760" y1="116" y2="116" stroke="#ebebe8" stroke-width="1"/><text x="62" y="120" text-anchor="end" font-family="Menlo, 'SF Mono', Consolas, monospace" font-size="12" fill="#52514e">100%</text><text x="72" y="520" text-anchor="middle" font-family="Menlo, 'SF Mono', Consolas, monospace" font-size="12" fill="#52514e">~300 nodes</text><text x="416" y="520" text-anchor="middle" font-family="Menlo, 'SF Mono', Consolas, monospace" font-size="12" fill="#52514e">~600</text><text x="760" y="520" text-anchor="middle" font-family="Menlo, 'SF Mono', Consolas, monospace" font-size="12" fill="#52514e">~1000</text><text x="416" y="540" text-anchor="middle" font-family="Seravek, 'Gill Sans', 'Helvetica Neue', Arial, sans-serif" font-size="11.5" fill="#8b8a83">tree size</text><path d="M72,116 L416,141.46000000000004 L760,192" fill="none" stroke="#2a78d6" stroke-width="2.5" stroke-linejoin="round"/><circle cx="72" cy="116" r="4.5" fill="#2a78d6" stroke="#fcfcfb" stroke-width="2"/><circle cx="416" cy="141.46000000000004" r="4.5" fill="#2a78d6" stroke="#fcfcfb" stroke-width="2"/><circle cx="760" cy="192" r="4.5" fill="#2a78d6" stroke="#fcfcfb" stroke-width="2"/><path d="M72,293.46000000000004 L416,420 L760,470.54" fill="none" stroke="#4a3aa7" stroke-width="2.5" stroke-linejoin="round"/><circle cx="72" cy="293.46000000000004" r="4.5" fill="#4a3aa7" stroke="#fcfcfb" stroke-width="2"/><circle cx="416" cy="420" r="4.5" fill="#4a3aa7" stroke="#fcfcfb" stroke-width="2"/><circle cx="760" cy="470.54" r="4.5" fill="#4a3aa7" stroke="#fcfcfb" stroke-width="2"/><path d="M72,116 L416,116 L760,166.54000000000002" fill="none" stroke="#e34948" stroke-width="2.5" stroke-linejoin="round"/><circle cx="72" cy="116" r="4.5" fill="#e34948" stroke="#fcfcfb" stroke-width="2"/><circle cx="416" cy="116" r="4.5" fill="#e34948" stroke="#fcfcfb" stroke-width="2"/><circle cx="760" cy="166.54000000000002" r="4.5" fill="#e34948" stroke="#fcfcfb" stroke-width="2"/><path d="M72,268 L416,369.46000000000004 L760,496" fill="none" stroke="#2a78d6" stroke-width="2.5" stroke-linejoin="round" stroke-dasharray="7 5"/><circle cx="72" cy="268" r="4.5" fill="#2a78d6" stroke="#fcfcfb" stroke-width="2"/><circle cx="416" cy="369.46000000000004" r="4.5" fill="#2a78d6" stroke="#fcfcfb" stroke-width="2"/><circle cx="760" cy="496" r="4.5" fill="#2a78d6" stroke="#fcfcfb" stroke-width="2"/><path d="M72,293.46000000000004 L416,420 L760,445.46" fill="none" stroke="#4a3aa7" stroke-width="2.5" stroke-linejoin="round" stroke-dasharray="7 5"/><circle cx="72" cy="293.46000000000004" r="4.5" fill="#4a3aa7" stroke="#fcfcfb" stroke-width="2"/><circle cx="416" cy="420" r="4.5" fill="#4a3aa7" stroke="#fcfcfb" stroke-width="2"/><circle cx="760" cy="445.46" r="4.5" fill="#4a3aa7" stroke="#fcfcfb" stroke-width="2"/><path d="M72,141.46000000000004 L416,141.46000000000004 L760,166.54000000000002" fill="none" stroke="#e34948" stroke-width="2.5" stroke-linejoin="round" stroke-dasharray="7 5"/><circle cx="72" cy="141.46000000000004" r="4.5" fill="#e34948" stroke="#fcfcfb" stroke-width="2"/><circle cx="416" cy="141.46000000000004" r="4.5" fill="#e34948" stroke="#fcfcfb" stroke-width="2"/><circle cx="760" cy="166.54000000000002" r="4.5" fill="#e34948" stroke="#fcfcfb" stroke-width="2"/><text x="772" y="204.54000000000002" font-family="Menlo, 'SF Mono', Consolas, monospace" font-size="12" font-weight="700" fill="#2a78d6">A sonnet &#183; 80%</text><text x="772" y="474.54" font-family="Menlo, 'SF Mono', Consolas, monospace" font-size="12" font-weight="700" fill="#4a3aa7">E sonnet &#183; 6.7%</text><text x="772" y="170.54000000000002" font-family="Menlo, 'SF Mono', Consolas, monospace" font-size="12" font-weight="700" fill="#e34948">F sonnet &#183; 86.7%</text><text x="772" y="500" font-family="Menlo, 'SF Mono', Consolas, monospace" font-size="12" font-weight="700" fill="#2a78d6">A gemini &#183; 0%</text><text x="772" y="449.46" font-family="Menlo, 'SF Mono', Consolas, monospace" font-size="12" font-weight="700" fill="#4a3aa7">E gemini &#183; 13.3%</text><text x="772" y="187.54000000000002" font-family="Menlo, 'SF Mono', Consolas, monospace" font-size="12" font-weight="700" fill="#e34948">F gemini &#183; 86.7%</text><text x="928" y="570" text-anchor="end" font-family="Seravek, 'Gill Sans', 'Helvetica Neue', Arial, sans-serif" font-size="10.5" fill="#8b8a83">protocol v2, streamed transport for large rewrites &#183; RFC 6902 (E) and rewrite-on-small-models decay; anchored patches (F) hold 87&#8211;100% for both tiers</text></svg>
