<?xml version="1.0" encoding="UTF-8"?>
<svg xmlns="http://www.w3.org/2000/svg" viewBox="0 0 960 584" width="960" height="584"><rect width="960" height="100%" fill="#fcfcfb"/><text x="32" y="38" font-family="Seravek, 'Gill Sans', 'Helvetica Neue', Arial, sans-serif" font-size="19" font-weight="700" fill="#0b0b0b">Tokens per solved task: anchored patches (F) are the cheapest condition at every size</text><text x="32" y="60" font-family="Seravek, 'Gill Sans', 'Helvetica Neue', Arial, sans-serif" font-size="12.5" fill="#52514e">Mean total tokens (input + output) per successfully solved task &#8212; parity prompts, models pooled &#183; barkup-bench</text><rect x="32" y="80" width="14" height="4" rx="2" fill="#2a78d6"/><text x="52" y="85" font-family="Menlo, 'SF Mono', Consolas, monospace" font-size="12" font-weight="700" fill="#0b0b0b">A</text><text x="64" y="85" font-family="Seravek, 'Gill Sans', 'Helvetica Neue', Arial, sans-serif" font-size="12" fill="#52514e">HTML + rewrite</text><rect x="183.60000000000002" y="80" width="14" height="4" rx="2" fill="#1baf7a"/><text x="203.60000000000002" y="85" font-family="Menlo, 'SF Mono', Consolas, monospace" font-size="12" font-weight="700" fill="#0b0b0b">B</text><text x="215.60000000000002" y="85" font-family="Seravek, 'Gill Sans', 'Helvetica Neue', Arial, sans-serif" font-size="12" fill="#52514e">JSON + rewrite</text><rect x="335.20000000000005" y="80" width="14" height="4" rx="2" fill="#eda100"/><text x="355.20000000000005" y="85" font-family="Menlo, 'SF Mono', Consolas, monospace" font-size="12" font-weight="700" fill="#0b0b0b">C</text><text x="367.20000000000005" y="85" font-family="Seravek, 'Gill Sans', 'Helvetica Neue', Arial, sans-serif" font-size="12" fill="#52514e">JSON + tools</text><rect x="474.00000000000006" y="80" width="14" height="4" rx="2" fill="#008300"/><text x="494.00000000000006" y="85" font-family="Menlo, 'SF Mono', Consolas, monospace" font-size="12" font-weight="700" fill="#0b0b0b">D</text><text x="506.00000000000006" y="85" font-family="Seravek, 'Gill Sans', 'Helvetica Neue', Arial, sans-serif" font-size="12" fill="#52514e">HTML + tools</text><rect x="612.8000000000001" y="80" width="14" height="4" rx="2" fill="#4a3aa7"/><text x="632.8000000000001" y="85" font-family="Menlo, 'SF Mono', Consolas, monospace" font-size="12" font-weight="700" fill="#0b0b0b">E</text><text x="644.8000000000001" y="85" font-family="Seravek, 'Gill Sans', 'Helvetica Neue', Arial, sans-serif" font-size="12" fill="#52514e">JSON Patch</text><rect x="738.8000000000001" y="80" width="14" height="4" rx="2" fill="#e34948"/><text x="758.8000000000001" y="85" font-family="Menlo, 'SF Mono', Consolas, monospace" font-size="12" font-weight="700" fill="#0b0b0b">F</text><text x="770.8000000000001" y="85" font-family="Seravek, 'Gill Sans', 'Helvetica Neue', Arial, sans-serif" font-size="12" fill="#52514e">anchored patch</text><line x1="72" x2="812" y1="496" y2="496" stroke="#ebebe8" stroke-width="1"/><text x="62" y="500" text-anchor="end" font-family="Menlo, 'SF Mono', Consolas, monospace" font-size="12" fill="#52514e">0k</text><line x1="72" x2="812" y1="401" y2="401" stroke="#ebebe8" stroke-width="1"/><text x="62" y="405" text-anchor="end" font-family="Menlo, 'SF Mono', Consolas, monospace" font-size="12" fill="#52514e">6k</text><line x1="72" x2="812" y1="306" y2="306" stroke="#ebebe8" stroke-width="1"/><text x="62" y="310" text-anchor="end" font-family="Menlo, 'SF Mono', Consolas, monospace" font-size="12" fill="#52514e">12k</text><line x1="72" x2="812" y1="211" y2="211" stroke="#ebebe8" stroke-width="1"/><text x="62" y="215" text-anchor="end" font-family="Menlo, 'SF Mono', Consolas, monospace" font-size="12" fill="#52514e">18k</text><line x1="72" x2="812" y1="116" y2="116" stroke="#ebebe8" stroke-width="1"/><text x="62" y="120" text-anchor="end" font-family="Menlo, 'SF Mono', Consolas, monospace" font-size="12" fill="#52514e">24k</text><text x="72" y="520" text-anchor="middle" font-family="Menlo, 'SF Mono', Consolas, monospace" font-size="12" fill="#52514e">~5 nodes</text><text x="318.66666666666663" y="520" text-anchor="middle" font-family="Menlo, 'SF Mono', Consolas, monospace" font-size="12" fill="#52514e">~20</text><text x="565.3333333333333" y="520" text-anchor="middle" font-family="Menlo, 'SF Mono', Consolas, monospace" font-size="12" fill="#52514e">~60</text><text x="812" y="520" text-anchor="middle" font-family="Menlo, 'SF Mono', Consolas, monospace" font-size="12" fill="#52514e">~150</text><text x="442" y="540" text-anchor="middle" font-family="Seravek, 'Gill Sans', 'Helvetica Neue', Arial, sans-serif" font-size="11.5" fill="#8b8a83">tree size bucket</text><path d="M72,477.9975 L318.66666666666663,449.7825 L565.3333333333333,375.4291666666667 L812,248.39833333333334" fill="none" stroke="#2a78d6" stroke-width="2.5" stroke-linejoin="round"/><circle cx="72" cy="477.9975" r="4.5" fill="#2a78d6" stroke="#fcfcfb" stroke-width="2"/><circle cx="318.66666666666663" cy="449.7825" r="4.5" fill="#2a78d6" stroke="#fcfcfb" stroke-width="2"/><circle cx="565.3333333333333" cy="375.4291666666667" r="4.5" fill="#2a78d6" stroke="#fcfcfb" stroke-width="2"/><circle cx="812" cy="248.39833333333334" r="4.5" fill="#2a78d6" stroke="#fcfcfb" stroke-width="2"/><path d="M72,476.2083333333333 L318.66666666666663,437.86 L565.3333333333333,325.5383333333333 L812,132.45083333333332" fill="none" stroke="#1baf7a" stroke-width="2.5" stroke-linejoin="round"/><circle cx="72" cy="476.2083333333333" r="4.5" fill="#1baf7a" stroke="#fcfcfb" stroke-width="2"/><circle cx="318.66666666666663" cy="437.86" r="4.5" fill="#1baf7a" stroke="#fcfcfb" stroke-width="2"/><circle cx="565.3333333333333" cy="325.5383333333333" r="4.5" fill="#1baf7a" stroke="#fcfcfb" stroke-width="2"/><circle cx="812" cy="132.45083333333332" r="4.5" fill="#1baf7a" stroke="#fcfcfb" stroke-width="2"/><path d="M72,417.49833333333333 L318.66666666666663,265.8625 L565.3333333333333,302.865 L812,120.22750000000002" fill="none" stroke="#eda100" stroke-width="2.5" stroke-linejoin="round"/><circle cx="72" cy="417.49833333333333" r="4.5" fill="#eda100" stroke="#fcfcfb" stroke-width="2"/><circle cx="318.66666666666663" cy="265.8625" r="4.5" fill="#eda100" stroke="#fcfcfb" stroke-width="2"/><circle cx="565.3333333333333" cy="302.865" r="4.5" fill="#eda100" stroke="#fcfcfb" stroke-width="2"/><circle cx="812" cy="120.22750000000002" r="4.5" fill="#eda100" stroke="#fcfcfb" stroke-width="2"/><path d="M72,418.1791666666667 L318.66666666666663,287.2058333333333 L565.3333333333333,337.6825 L812,219.6925" fill="none" stroke="#008300" stroke-width="2.5" stroke-linejoin="round"/><circle cx="72" cy="418.1791666666667" r="4.5" fill="#008300" stroke="#fcfcfb" stroke-width="2"/><circle cx="318.66666666666663" cy="287.2058333333333" r="4.5" fill="#008300" stroke="#fcfcfb" stroke-width="2"/><circle cx="565.3333333333333" cy="337.6825" r="4.5" fill="#008300" stroke="#fcfcfb" stroke-width="2"/><circle cx="812" cy="219.6925" r="4.5" fill="#008300" stroke="#fcfcfb" stroke-width="2"/><path d="M72,475.67 L318.66666666666663,448.5158333333333 L565.3333333333333,393.1308333333333 L812,251.97666666666666" fill="none" stroke="#4a3aa7" stroke-width="2.5" stroke-linejoin="round"/><circle cx="72" cy="475.67" r="4.5" fill="#4a3aa7" stroke="#fcfcfb" stroke-width="2"/><circle cx="318.66666666666663" cy="448.5158333333333" r="4.5" fill="#4a3aa7" stroke="#fcfcfb" stroke-width="2"/><circle cx="565.3333333333333" cy="393.1308333333333" r="4.5" fill="#4a3aa7" stroke="#fcfcfb" stroke-width="2"/><circle cx="812" cy="251.97666666666666" r="4.5" fill="#4a3aa7" stroke="#fcfcfb" stroke-width="2"/><path d="M72,477.475 L318.66666666666663,452.8541666666667 L565.3333333333333,395.14166666666665 L812,287.7125" fill="none" stroke="#e34948" stroke-width="2.5" stroke-linejoin="round"/><circle cx="72" cy="477.475" r="4.5" fill="#e34948" stroke="#fcfcfb" stroke-width="2"/><circle cx="318.66666666666663" cy="452.8541666666667" r="4.5" fill="#e34948" stroke="#fcfcfb" stroke-width="2"/><circle cx="565.3333333333333" cy="395.14166666666665" r="4.5" fill="#e34948" stroke="#fcfcfb" stroke-width="2"/><circle cx="812" cy="287.7125" r="4.5" fill="#e34948" stroke="#fcfcfb" stroke-width="2"/><text x="826" y="252.39833333333334" font-family="Menlo, 'SF Mono', Consolas, monospace" font-size="13" font-weight="700" fill="#2a78d6">A &#183; 15.6k</text><text x="826" y="142.22750000000002" font-family="Menlo, 'SF Mono', Consolas, monospace" font-size="13" font-weight="700" fill="#1baf7a">B &#183; 23.0k</text><text x="826" y="124.22750000000002" font-family="Menlo, 'SF Mono', Consolas, monospace" font-size="13" font-weight="700" fill="#eda100">C &#183; 23.7k</text><text x="826" y="223.6925" font-family="Menlo, 'SF Mono', Consolas, monospace" font-size="13" font-weight="700" fill="#008300">D &#183; 17.5k</text><text x="826" y="270.3983333333333" font-family="Menlo, 'SF Mono', Consolas, monospace" font-size="13" font-weight="700" fill="#4a3aa7">E &#183; 15.4k</text><text x="826" y="291.7125" font-family="Menlo, 'SF Mono', Consolas, monospace" font-size="13" font-weight="700" fill="#e34948">F &#183; 13.2k</text><text x="928" y="570" text-anchor="end" font-family="Seravek, 'Gill Sans', 'Helvetica Neue', Arial, sans-serif" font-size="10.5" fill="#8b8a83">at ~150 nodes, HTML rewrite (A) undercuts JSON rewrite (B) by ~30%</text></svg>
